<svg width="54" height="54" viewBox="0 0 54 54" fill="none" xmlns="http://www.w3.org/2000/svg">
<path d="M18.5625 47.25C20.4265 47.25 21.9375 45.739 21.9375 43.875C21.9375 42.011 20.4265 40.5 18.5625 40.5C16.6985 40.5 15.1875 42.011 15.1875 43.875C15.1875 45.739 16.6985 47.25 18.5625 47.25Z" fill="white"/>
<path d="M42.1875 47.25C44.0515 47.25 45.5625 45.739 45.5625 43.875C45.5625 42.011 44.0515 40.5 42.1875 40.5C40.3235 40.5 38.8125 42.011 38.8125 43.875C38.8125 45.739 40.3235 47.25 42.1875 47.25Z" fill="white"/>
<path d="M48.1781 12.7385C47.941 12.4485 47.6424 12.215 47.3038 12.0548C46.9652 11.8946 46.5952 11.8119 46.2206 11.8125H14.1212L13.4747 8.1443C13.4057 7.75357 13.2013 7.39962 12.8974 7.14463C12.5934 6.88964 12.2093 6.74992 11.8125 6.75H5.0625C4.61495 6.75 4.18572 6.92779 3.86926 7.24426C3.55279 7.56073 3.375 7.98995 3.375 8.4375C3.375 8.88505 3.55279 9.31427 3.86926 9.63074C4.18572 9.94721 4.61495 10.125 5.0625 10.125H10.3971L15.2128 37.4182C15.2818 37.8089 15.4862 38.1629 15.7901 38.4179C16.0941 38.6729 16.4782 38.8126 16.875 38.8125H43.875C44.3226 38.8125 44.7518 38.6347 45.0682 38.3182C45.3847 38.0018 45.5625 37.5726 45.5625 37.125C45.5625 36.6774 45.3847 36.2482 45.0682 35.9318C44.7518 35.6153 44.3226 35.4375 43.875 35.4375H18.2904L17.6955 32.0625H43.1831C43.7683 32.0618 44.3353 31.8588 44.7881 31.4881C45.2409 31.1174 45.5518 30.6016 45.668 30.028L48.7055 14.8405C48.7787 14.473 48.7693 14.0937 48.6781 13.7302C48.5869 13.3667 48.4162 13.028 48.1781 12.7385V12.7385Z" fill="white"/>
</svg>
