<svg width="46" height="42" viewBox="0 0 46 42" fill="none" xmlns="http://www.w3.org/2000/svg">
<path d="M15.5625 41.25C17.4265 41.25 18.9375 39.739 18.9375 37.875C18.9375 36.011 17.4265 34.5 15.5625 34.5C13.6985 34.5 12.1875 36.011 12.1875 37.875C12.1875 39.739 13.6985 41.25 15.5625 41.25Z" fill="#1A1F16"/>
<path d="M39.1875 41.25C41.0515 41.25 42.5625 39.739 42.5625 37.875C42.5625 36.011 41.0515 34.5 39.1875 34.5C37.3235 34.5 35.8125 36.011 35.8125 37.875C35.8125 39.739 37.3235 41.25 39.1875 41.25Z" fill="#1A1F16"/>
<path d="M45.1781 6.73852C44.941 6.44853 44.6424 6.21497 44.3038 6.0548C43.9652 5.89462 43.5952 5.81186 43.2206 5.8125H11.1212L10.4747 2.1443C10.4057 1.75357 10.2013 1.39962 9.89736 1.14463C9.59338 0.889641 9.20927 0.749917 8.8125 0.75H2.0625C1.61495 0.75 1.18572 0.92779 0.869257 1.24426C0.55279 1.56073 0.375 1.98995 0.375 2.4375C0.375 2.88505 0.55279 3.31427 0.869257 3.63074C1.18572 3.94721 1.61495 4.125 2.0625 4.125H7.39711L12.2128 31.4182C12.2818 31.8089 12.4862 32.1629 12.7901 32.4179C13.0941 32.6729 13.4782 32.8126 13.875 32.8125H40.875C41.3226 32.8125 41.7518 32.6347 42.0682 32.3182C42.3847 32.0018 42.5625 31.5726 42.5625 31.125C42.5625 30.6774 42.3847 30.2482 42.0682 29.9318C41.7518 29.6153 41.3226 29.4375 40.875 29.4375H15.2904L14.6955 26.0625H40.1831C40.7683 26.0618 41.3353 25.8588 41.7881 25.4881C42.2409 25.1174 42.5518 24.6016 42.668 24.028L45.7055 8.84051C45.7787 8.47295 45.7693 8.09373 45.6781 7.73022C45.5869 7.36671 45.4161 7.02799 45.1781 6.73852Z" fill="#1A1F16"/>
</svg>
