<svg width="36" height="44" viewBox="0 0 36 44" fill="none" xmlns="http://www.w3.org/2000/svg">
<path fill-rule="evenodd" clip-rule="evenodd" d="M2.54159 13.5C1.32196 13.5 0.333252 12.5486 0.333252 11.375C0.333252 10.2014 1.32196 9.25 2.54159 9.25H9.16659V7.125C9.16659 3.60418 12.1327 0.75 15.7916 0.75H20.2083C23.8671 0.75 26.8333 3.60418 26.8333 7.125V9.25H33.4583C34.6779 9.25 35.6666 10.2014 35.6666 11.375C35.6666 12.5486 34.6779 13.5 33.4583 13.5V39C33.4583 41.3472 31.4808 43.25 29.0416 43.25H6.95825C4.51899 43.25 2.54159 41.3472 2.54159 39V13.5ZM13.5833 9.25H22.4166V7.125C22.4166 5.95139 21.4279 5 20.2083 5H15.7916C14.572 5 13.5833 5.95139 13.5833 7.125V9.25ZM13.5833 19.875C14.8029 19.875 15.7916 20.8264 15.7916 22V30.5C15.7916 31.6736 14.8029 32.625 13.5833 32.625C12.3636 32.625 11.3749 31.6736 11.3749 30.5V22C11.3749 20.8264 12.3636 19.875 13.5833 19.875ZM24.6249 22C24.6249 20.8264 23.6362 19.875 22.4166 19.875C21.197 19.875 20.2083 20.8264 20.2083 22V30.5C20.2083 31.6736 21.197 32.625 22.4166 32.625C23.6362 32.625 24.6249 31.6736 24.6249 30.5V22Z" fill="#0E0E0E"/>
</svg>
