<svg width="50" height="51" viewBox="0 0 50 51" fill="none" xmlns="http://www.w3.org/2000/svg">
<rect y="0.5" width="50" height="50" rx="21" fill="black"/>
<path d="M24.3651 9.875C22.8021 9.87564 21.2546 10.185 19.8115 10.7852C18.3683 11.3855 17.0579 12.2648 15.9555 13.3728C14.8531 14.4808 13.9803 15.7957 13.3874 17.2418C12.7944 18.688 12.4929 20.237 12.5001 21.8C12.5001 30.04 21.0001 37.595 23.6151 39.595C23.8346 39.7763 24.1104 39.8754 24.3951 39.8754C24.6798 39.8754 24.9556 39.7763 25.1751 39.595C27.7951 37.535 36.2251 30.04 36.2251 21.8C36.2324 20.2374 35.931 18.6888 35.3384 17.243C34.7457 15.7971 33.8734 14.4825 32.7715 13.3746C31.6696 12.2667 30.3598 11.3872 28.9172 10.7867C27.4747 10.1861 25.9277 9.8763 24.3651 9.875ZM24.3651 26.73C23.3762 26.73 22.4095 26.4368 21.5873 25.8873C20.765 25.3379 20.1242 24.557 19.7457 23.6434C19.3673 22.7298 19.2683 21.7245 19.4612 20.7545C19.6541 19.7846 20.1303 18.8937 20.8296 18.1945C21.5289 17.4952 22.4198 17.019 23.3897 16.8261C24.3596 16.6331 25.3649 16.7322 26.2785 17.1106C27.1922 17.489 27.9731 18.1299 28.5225 18.9521C29.0719 19.7744 29.3651 20.7411 29.3651 21.73C29.3651 23.0561 28.8383 24.3279 27.9007 25.2655C26.963 26.2032 25.6912 26.73 24.3651 26.73Z" fill="white"/>
</svg>
