<svg width="197" height="55" viewBox="0 0 197 55" fill="none" xmlns="http://www.w3.org/2000/svg">
<path fill-rule="evenodd" clip-rule="evenodd" d="M19.0253 0.0744775C19.0003 3.62903 18.9755 7.18394 18.9507 10.7392C18.6771 10.4658 18.4035 10.1923 18.1299 9.91879L13.1312 5.22086C13.1809 3.48062 13.2306 1.74034 13.2804 0L19.0253 0.0744775ZM56.7773 0.894925C57.1672 1.32555 56.9265 3.06415 56.9265 3.80348V11.9325C56.9016 22.5962 56.8768 33.2609 56.8519 43.9267L44.9891 54.9643H44.9145V47.581L51.4801 41.5402C51.5547 32.1442 51.6292 22.7474 51.7039 13.3495L28.799 34.0078L28.2767 33.4857L19.0253 25.5058C19.0003 28.4886 18.9755 31.4717 18.9507 34.4553L29.0229 45.2693L39.1696 35.1265L45.4367 29.011C45.3621 31.795 45.2876 34.5792 45.213 37.3638L28.9482 52.8015L13.0565 37.0654C13.0814 31.4726 13.1063 25.8794 13.1312 20.2857L5.37183 13.3495H5.29723L5.52105 41.6893L12.0866 47.581C12.0618 49.9424 12.0368 52.3041 12.012 54.666L11.3405 53.9947L0 43.7778L0.298434 0.969545L0.969914 1.64073L28.7244 26.6245L29.172 26.177L56.7773 0.894925Z" fill="#FFB800"/>
<path d="M76.352 8.84002H79.095V23.556H85.686V26H76.352V8.84002Z" fill="black"/>
<path d="M91.0875 20.566C91.0875 21.606 91.2998 22.4337 91.7245 23.049C92.1578 23.6644 92.8382 23.972 93.7655 23.972C94.7015 23.972 95.3818 23.6644 95.8065 23.049C96.2312 22.4337 96.4435 21.606 96.4435 20.566V15.327H99.1995V20.917C99.1995 21.9917 98.9872 22.9364 98.5625 23.751C98.1378 24.557 97.5225 25.1854 96.7165 25.636C95.9105 26.0867 94.9268 26.312 93.7655 26.312C92.6128 26.312 91.6335 26.0867 90.8275 25.636C90.0215 25.1854 89.4062 24.557 88.9815 23.751C88.5568 22.9364 88.3445 21.9917 88.3445 20.917V15.327H91.0875V20.566Z" fill="black"/>
<path d="M108.844 15.327H112.107L106.738 20.41L112.51 26H109.195L104.502 21.411V26H101.72V8.11202H104.502V19.396L108.844 15.327Z" fill="black"/>
<path d="M122.417 26V24.024C122.348 24.232 122.149 24.518 121.819 24.882C121.499 25.246 121.057 25.5754 120.493 25.87C119.939 26.1647 119.28 26.312 118.517 26.312C117.521 26.312 116.624 26.0737 115.826 25.597C115.029 25.1204 114.401 24.4574 113.941 23.608C113.482 22.7587 113.252 21.7794 113.252 20.67C113.252 19.5607 113.482 18.5814 113.941 17.732C114.401 16.8827 115.029 16.2197 115.826 15.743C116.624 15.2577 117.521 15.015 118.517 15.015C119.263 15.015 119.908 15.145 120.454 15.405C121 15.665 121.438 15.964 121.767 16.302C122.105 16.64 122.313 16.9347 122.391 17.186V15.327H125.147V26H122.417ZM115.995 20.67C115.995 21.3547 116.147 21.9527 116.45 22.464C116.754 22.9754 117.148 23.3697 117.633 23.647C118.127 23.9244 118.656 24.063 119.219 24.063C119.826 24.063 120.363 23.92 120.831 23.634C121.308 23.348 121.681 22.9537 121.949 22.451C122.227 21.9397 122.365 21.346 122.365 20.67C122.365 19.994 122.227 19.4047 121.949 18.902C121.681 18.3907 121.308 17.992 120.831 17.706C120.363 17.4114 119.826 17.264 119.219 17.264C118.656 17.264 118.127 17.407 117.633 17.693C117.148 17.9704 116.754 18.3647 116.45 18.876C116.147 19.3874 115.995 19.9854 115.995 20.67ZM115.111 13.039C115.189 12.6144 115.337 12.1724 115.553 11.713C115.779 11.2537 116.069 10.868 116.424 10.556C116.78 10.2354 117.204 10.075 117.698 10.075C118.227 10.075 118.682 10.1574 119.063 10.322C119.445 10.478 119.8 10.6384 120.129 10.803C120.467 10.9677 120.831 11.05 121.221 11.05C121.507 11.05 121.737 10.9374 121.91 10.712C122.084 10.4867 122.201 10.2744 122.261 10.075H124.042C123.947 10.491 123.787 10.933 123.561 11.401C123.345 11.8604 123.054 12.2504 122.69 12.571C122.335 12.883 121.915 13.039 121.429 13.039C120.892 13.039 120.428 12.961 120.038 12.805C119.657 12.6404 119.302 12.4757 118.972 12.311C118.652 12.1464 118.309 12.064 117.945 12.064C117.677 12.064 117.447 12.1767 117.256 12.402C117.074 12.6187 116.953 12.831 116.892 13.039H115.111Z" fill="black"/>
<path d="M133.091 26.312C131.973 26.312 130.976 26.0694 130.101 25.584C129.234 25.09 128.554 24.4227 128.06 23.582C127.566 22.7327 127.319 21.7707 127.319 20.696C127.319 19.6214 127.566 18.655 128.06 17.797C128.554 16.939 129.234 16.263 130.101 15.769C130.976 15.2664 131.973 15.015 133.091 15.015C134.209 15.015 135.197 15.2664 136.055 15.769C136.913 16.263 137.584 16.939 138.07 17.797C138.564 18.655 138.811 19.6214 138.811 20.696C138.811 21.7707 138.564 22.7327 138.07 23.582C137.584 24.4227 136.913 25.09 136.055 25.584C135.197 26.0694 134.209 26.312 133.091 26.312ZM133.091 23.972C133.715 23.972 134.256 23.829 134.716 23.543C135.175 23.257 135.53 22.867 135.782 22.373C136.033 21.879 136.159 21.3157 136.159 20.683C136.159 20.0504 136.033 19.487 135.782 18.993C135.53 18.4904 135.175 18.0917 134.716 17.797C134.256 17.5024 133.715 17.355 133.091 17.355C132.467 17.355 131.921 17.5024 131.453 17.797C130.993 18.0917 130.634 18.4904 130.374 18.993C130.122 19.487 129.997 20.0504 129.997 20.683C129.997 21.3157 130.122 21.879 130.374 22.373C130.634 22.867 130.993 23.257 131.453 23.543C131.921 23.829 132.467 23.972 133.091 23.972Z" fill="black"/>
<path d="M91.344 36.16V52H88.824V41.212L88.944 39.184L88.464 41.464L84.996 50.992H82.512L79.056 41.464L78.576 39.184L78.696 41.212V52H76.176V36.16H79.62L83.58 48.016L83.76 48.964L83.928 48.016L87.912 36.16H91.344Z" fill="black"/>
<path d="M96.9281 46.984C96.9281 47.944 97.1241 48.708 97.5161 49.276C97.9161 49.844 98.5441 50.128 99.4001 50.128C100.264 50.128 100.892 49.844 101.284 49.276C101.676 48.708 101.872 47.944 101.872 46.984V42.148H104.416V47.308C104.416 48.3 104.22 49.172 103.828 49.924C103.436 50.668 102.868 51.248 102.124 51.664C101.38 52.08 100.472 52.288 99.4001 52.288C98.3361 52.288 97.4321 52.08 96.6881 51.664C95.9441 51.248 95.3761 50.668 94.9841 49.924C94.5921 49.172 94.3961 48.3 94.3961 47.308V42.148H96.9281V46.984Z" fill="black"/>
<path d="M109.695 52H107.115V35.488H109.695V52Z" fill="black"/>
<path d="M111.653 42.148H113.501V38.104H116.045V42.148H118.481V44.308H116.045V48.52C116.045 49.048 116.133 49.444 116.309 49.708C116.493 49.972 116.753 50.104 117.089 50.104C117.369 50.104 117.589 50.052 117.749 49.948C117.917 49.844 118.017 49.772 118.049 49.732L118.997 51.592C118.949 51.64 118.809 51.72 118.577 51.832C118.345 51.944 118.045 52.048 117.677 52.144C117.309 52.24 116.889 52.288 116.417 52.288C115.585 52.288 114.889 52.04 114.329 51.544C113.777 51.048 113.501 50.272 113.501 49.216V44.308H111.653V42.148Z" fill="black"/>
<path d="M120.864 52V42.148H123.42V52H120.864ZM122.172 39.196C121.74 39.196 121.368 39.04 121.056 38.728C120.752 38.416 120.6 38.044 120.6 37.612C120.6 37.18 120.752 36.808 121.056 36.496C121.368 36.176 121.74 36.016 122.172 36.016C122.46 36.016 122.724 36.092 122.964 36.244C123.212 36.388 123.408 36.58 123.552 36.82C123.704 37.052 123.78 37.316 123.78 37.612C123.78 38.044 123.624 38.416 123.312 38.728C123 39.04 122.62 39.196 122.172 39.196Z" fill="black"/>
<path d="M141.571 36.16V52H139.051V41.212L139.171 39.184L138.691 41.464L135.223 50.992H132.739L129.283 41.464L128.803 39.184L128.923 41.212V52H126.403V36.16H129.847L133.807 48.016L133.987 48.964L134.155 48.016L138.139 36.16H141.571Z" fill="black"/>
<path d="M152.567 52V50.176C152.503 50.368 152.319 50.632 152.015 50.968C151.719 51.304 151.311 51.608 150.791 51.88C150.279 52.152 149.671 52.288 148.967 52.288C148.047 52.288 147.219 52.068 146.483 51.628C145.747 51.188 145.167 50.576 144.743 49.792C144.319 49.008 144.107 48.104 144.107 47.08C144.107 46.056 144.319 45.152 144.743 44.368C145.167 43.584 145.747 42.972 146.483 42.532C147.219 42.084 148.047 41.86 148.967 41.86C149.655 41.86 150.251 41.98 150.755 42.22C151.259 42.46 151.663 42.736 151.967 43.048C152.279 43.36 152.471 43.632 152.543 43.864V42.148H155.087V52H152.567ZM146.639 47.08C146.639 47.712 146.779 48.264 147.059 48.736C147.339 49.208 147.703 49.572 148.151 49.828C148.607 50.084 149.095 50.212 149.615 50.212C150.175 50.212 150.671 50.08 151.103 49.816C151.543 49.552 151.887 49.188 152.135 48.724C152.391 48.252 152.519 47.704 152.519 47.08C152.519 46.456 152.391 45.912 152.135 45.448C151.887 44.976 151.543 44.608 151.103 44.344C150.671 44.072 150.175 43.936 149.615 43.936C149.095 43.936 148.607 44.068 148.151 44.332C147.703 44.588 147.339 44.952 147.059 45.424C146.779 45.896 146.639 46.448 146.639 47.08Z" fill="black"/>
<path d="M160.163 52H157.607V42.148H160.163V43.792H160.103C160.159 43.592 160.311 43.344 160.559 43.048C160.815 42.744 161.167 42.472 161.615 42.232C162.063 41.984 162.603 41.86 163.235 41.86C163.691 41.86 164.099 41.924 164.459 42.052C164.819 42.18 165.075 42.308 165.227 42.436L164.195 44.548C164.091 44.42 163.895 44.296 163.607 44.176C163.327 44.048 162.979 43.984 162.563 43.984C162.043 43.984 161.603 44.136 161.243 44.44C160.891 44.744 160.623 45.108 160.439 45.532C160.255 45.956 160.163 46.352 160.163 46.72V52Z" fill="black"/>
<path d="M171.095 50.212C171.663 50.212 172.123 50.12 172.475 49.936C172.835 49.744 173.067 49.604 173.171 49.516L174.383 51.316C174.287 51.396 174.087 51.516 173.783 51.676C173.479 51.828 173.091 51.968 172.619 52.096C172.155 52.224 171.627 52.288 171.035 52.288C170.059 52.288 169.171 52.084 168.371 51.676C167.579 51.26 166.943 50.664 166.463 49.888C165.991 49.104 165.755 48.164 165.755 47.068C165.755 45.964 165.991 45.024 166.463 44.248C166.943 43.472 167.579 42.88 168.371 42.472C169.171 42.064 170.059 41.86 171.035 41.86C171.619 41.86 172.139 41.928 172.595 42.064C173.059 42.192 173.443 42.34 173.747 42.508C174.051 42.676 174.255 42.808 174.359 42.904L173.123 44.704C173.067 44.648 172.951 44.56 172.775 44.44C172.607 44.312 172.383 44.196 172.103 44.092C171.823 43.988 171.487 43.936 171.095 43.936C170.615 43.936 170.155 44.064 169.715 44.32C169.275 44.576 168.915 44.94 168.635 45.412C168.355 45.876 168.215 46.428 168.215 47.068C168.215 47.708 168.355 48.264 168.635 48.736C168.915 49.208 169.275 49.572 169.715 49.828C170.155 50.084 170.615 50.212 171.095 50.212Z" fill="black"/>
<path d="M184.09 52V50.176C184.026 50.368 183.842 50.632 183.538 50.968C183.242 51.304 182.834 51.608 182.314 51.88C181.802 52.152 181.194 52.288 180.49 52.288C179.57 52.288 178.742 52.068 178.006 51.628C177.27 51.188 176.69 50.576 176.266 49.792C175.842 49.008 175.63 48.104 175.63 47.08C175.63 46.056 175.842 45.152 176.266 44.368C176.69 43.584 177.27 42.972 178.006 42.532C178.742 42.084 179.57 41.86 180.49 41.86C181.178 41.86 181.774 41.98 182.278 42.22C182.782 42.46 183.186 42.736 183.49 43.048C183.802 43.36 183.994 43.632 184.066 43.864V42.148H186.61V52H184.09ZM178.162 47.08C178.162 47.712 178.302 48.264 178.582 48.736C178.862 49.208 179.226 49.572 179.674 49.828C180.13 50.084 180.618 50.212 181.138 50.212C181.698 50.212 182.194 50.08 182.626 49.816C183.066 49.552 183.41 49.188 183.658 48.724C183.914 48.252 184.042 47.704 184.042 47.08C184.042 46.456 183.914 45.912 183.658 45.448C183.41 44.976 183.066 44.608 182.626 44.344C182.194 44.072 181.698 43.936 181.138 43.936C180.618 43.936 180.13 44.068 179.674 44.332C179.226 44.588 178.862 44.952 178.582 45.424C178.302 45.896 178.162 46.448 178.162 47.08Z" fill="black"/>
<path d="M193.163 41.86C193.715 41.86 194.227 41.912 194.699 42.016C195.171 42.12 195.575 42.244 195.911 42.388C196.247 42.532 196.479 42.652 196.607 42.748L195.671 44.332C195.511 44.196 195.223 44.04 194.807 43.864C194.399 43.688 193.938 43.6 193.426 43.6C192.914 43.6 192.482 43.692 192.13 43.876C191.778 44.06 191.602 44.336 191.602 44.704C191.602 45.064 191.786 45.352 192.154 45.568C192.53 45.784 193.038 45.964 193.678 46.108C194.206 46.228 194.711 46.396 195.191 46.612C195.671 46.82 196.063 47.12 196.367 47.512C196.679 47.896 196.835 48.412 196.835 49.06C196.835 49.676 196.702 50.192 196.438 50.608C196.182 51.016 195.838 51.344 195.406 51.592C194.974 51.84 194.494 52.016 193.966 52.12C193.446 52.232 192.923 52.288 192.395 52.288C191.747 52.288 191.166 52.224 190.654 52.096C190.15 51.968 189.731 51.82 189.395 51.652C189.059 51.476 188.818 51.328 188.674 51.208L189.611 49.432C189.819 49.632 190.158 49.844 190.63 50.068C191.102 50.284 191.63 50.392 192.214 50.392C192.838 50.392 193.338 50.272 193.714 50.032C194.09 49.792 194.279 49.472 194.279 49.072C194.279 48.776 194.187 48.536 194.003 48.352C193.827 48.168 193.582 48.02 193.27 47.908C192.958 47.796 192.611 47.696 192.227 47.608C191.867 47.52 191.503 47.408 191.135 47.272C190.775 47.128 190.443 46.944 190.139 46.72C189.835 46.488 189.59 46.2 189.406 45.856C189.222 45.512 189.13 45.108 189.13 44.644C189.13 44.052 189.319 43.548 189.695 43.132C190.071 42.716 190.566 42.4 191.182 42.184C191.798 41.968 192.459 41.86 193.163 41.86Z" fill="black"/>
</svg>
