<svg width="198" height="56" viewBox="0 0 198 56" fill="none" xmlns="http://www.w3.org/2000/svg">
<path fill-rule="evenodd" clip-rule="evenodd" d="M19.7054 0.544686C19.6806 4.08148 19.6559 7.61862 19.6312 11.1561C19.359 10.8841 19.0867 10.612 18.8146 10.3398L13.8408 5.66536C13.8902 3.93381 13.9397 2.20222 13.9892 0.470581L19.7054 0.544686ZM57.2688 1.36103C57.6568 1.7895 57.4173 3.51942 57.4173 4.25506V12.3435C57.3925 22.9539 57.3678 33.5653 57.3431 44.1778L45.5395 55.1602H45.4653V47.8139L51.9981 41.8033C52.0723 32.4542 52.1465 23.1043 52.2208 13.7534L29.4303 34.3084L28.9106 33.789L19.7054 25.8489C19.6806 28.8169 19.6559 31.7851 19.6312 34.7537L29.653 45.5137L39.7491 35.4215L45.9849 29.3367C45.9107 32.1067 45.8365 34.8771 45.7623 37.6477L29.5788 53.0083L13.7665 37.3508C13.7913 31.786 13.816 26.2206 13.8408 20.6549L6.1202 13.7534H6.04597L6.26867 41.9516L12.8014 47.8139C12.7767 50.1635 12.7519 52.5133 12.7272 54.8635L12.0591 54.1955L0.775208 44.0296L1.07215 1.43528L1.74028 2.10312L29.3561 26.962L29.8015 26.5168L57.2688 1.36103Z" fill="#FFB800"/>
<path d="M77.2221 10.1733H79.9651V24.8893H86.5561V27.3333H77.2221V10.1733Z" fill="white"/>
<path d="M91.9576 21.8993C91.9576 22.9393 92.17 23.767 92.5946 24.3823C93.028 24.9976 93.7083 25.3053 94.6356 25.3053C95.5716 25.3053 96.252 24.9976 96.6766 24.3823C97.1013 23.767 97.3136 22.9393 97.3136 21.8993V16.6603H100.07V22.2503C100.07 23.325 99.8573 24.2696 99.4326 25.0843C99.008 25.8903 98.3926 26.5186 97.5866 26.9693C96.7806 27.42 95.797 27.6453 94.6356 27.6453C93.483 27.6453 92.5036 27.42 91.6976 26.9693C90.8916 26.5186 90.2763 25.8903 89.8516 25.0843C89.427 24.2696 89.2146 23.325 89.2146 22.2503V16.6603H91.9576V21.8993Z" fill="white"/>
<path d="M109.714 16.6603H112.977L107.608 21.7433L113.38 27.3333H110.065L105.372 22.7443V27.3333H102.59V9.44529H105.372V20.7293L109.714 16.6603Z" fill="white"/>
<path d="M123.287 27.3333V25.3573C123.218 25.5653 123.019 25.8513 122.689 26.2153C122.369 26.5793 121.927 26.9086 121.363 27.2033C120.809 27.498 120.15 27.6453 119.387 27.6453C118.391 27.6453 117.494 27.407 116.696 26.9303C115.899 26.4536 115.271 25.7906 114.811 24.9413C114.352 24.092 114.122 23.1126 114.122 22.0033C114.122 20.894 114.352 19.9146 114.811 19.0653C115.271 18.216 115.899 17.553 116.696 17.0763C117.494 16.591 118.391 16.3483 119.387 16.3483C120.133 16.3483 120.778 16.4783 121.324 16.7383C121.87 16.9983 122.308 17.2973 122.637 17.6353C122.975 17.9733 123.183 18.268 123.261 18.5193V16.6603H126.017V27.3333H123.287ZM116.865 22.0033C116.865 22.688 117.017 23.286 117.32 23.7973C117.624 24.3086 118.018 24.703 118.503 24.9803C118.997 25.2576 119.526 25.3963 120.089 25.3963C120.696 25.3963 121.233 25.2533 121.701 24.9673C122.178 24.6813 122.551 24.287 122.819 23.7843C123.097 23.273 123.235 22.6793 123.235 22.0033C123.235 21.3273 123.097 20.738 122.819 20.2353C122.551 19.724 122.178 19.3253 121.701 19.0393C121.233 18.7446 120.696 18.5973 120.089 18.5973C119.526 18.5973 118.997 18.7403 118.503 19.0263C118.018 19.3036 117.624 19.698 117.32 20.2093C117.017 20.7206 116.865 21.3186 116.865 22.0033ZM115.981 14.3723C116.059 13.9476 116.207 13.5056 116.423 13.0463C116.649 12.587 116.939 12.2013 117.294 11.8893C117.65 11.5686 118.074 11.4083 118.568 11.4083C119.097 11.4083 119.552 11.4906 119.933 11.6553C120.315 11.8113 120.67 11.9716 120.999 12.1363C121.337 12.301 121.701 12.3833 122.091 12.3833C122.377 12.3833 122.607 12.2706 122.78 12.0453C122.954 11.82 123.071 11.6076 123.131 11.4083H124.912C124.817 11.8243 124.657 12.2663 124.431 12.7343C124.215 13.1936 123.924 13.5836 123.56 13.9043C123.205 14.2163 122.785 14.3723 122.299 14.3723C121.762 14.3723 121.298 14.2943 120.908 14.1383C120.527 13.9736 120.172 13.809 119.842 13.6443C119.522 13.4796 119.179 13.3973 118.815 13.3973C118.547 13.3973 118.317 13.51 118.126 13.7353C117.944 13.952 117.823 14.1643 117.762 14.3723H115.981Z" fill="white"/>
<path d="M133.961 27.6453C132.843 27.6453 131.846 27.4026 130.971 26.9173C130.104 26.4233 129.424 25.756 128.93 24.9153C128.436 24.066 128.189 23.104 128.189 22.0293C128.189 20.9546 128.436 19.9883 128.93 19.1303C129.424 18.2723 130.104 17.5963 130.971 17.1023C131.846 16.5996 132.843 16.3483 133.961 16.3483C135.079 16.3483 136.067 16.5996 136.925 17.1023C137.783 17.5963 138.455 18.2723 138.94 19.1303C139.434 19.9883 139.681 20.9546 139.681 22.0293C139.681 23.104 139.434 24.066 138.94 24.9153C138.455 25.756 137.783 26.4233 136.925 26.9173C136.067 27.4026 135.079 27.6453 133.961 27.6453ZM133.961 25.3053C134.585 25.3053 135.127 25.1623 135.586 24.8763C136.045 24.5903 136.401 24.2003 136.652 23.7063C136.903 23.2123 137.029 22.649 137.029 22.0163C137.029 21.3836 136.903 20.8203 136.652 20.3263C136.401 19.8236 136.045 19.425 135.586 19.1303C135.127 18.8356 134.585 18.6883 133.961 18.6883C133.337 18.6883 132.791 18.8356 132.323 19.1303C131.864 19.425 131.504 19.8236 131.244 20.3263C130.993 20.8203 130.867 21.3836 130.867 22.0163C130.867 22.649 130.993 23.2123 131.244 23.7063C131.504 24.2003 131.864 24.5903 132.323 24.8763C132.791 25.1623 133.337 25.3053 133.961 25.3053Z" fill="white"/>
<path d="M92.2141 37.4933V53.3333H89.6941V42.5453L89.8141 40.5173L89.3341 42.7973L85.8661 52.3253H83.3821L79.9261 42.7973L79.4461 40.5173L79.5661 42.5453V53.3333H77.0461V37.4933H80.4901L84.4501 49.3493L84.6301 50.2973L84.7981 49.3493L88.7821 37.4933H92.2141Z" fill="white"/>
<path d="M97.7983 48.3173C97.7983 49.2773 97.9943 50.0413 98.3863 50.6093C98.7863 51.1773 99.4143 51.4613 100.27 51.4613C101.134 51.4613 101.762 51.1773 102.154 50.6093C102.546 50.0413 102.742 49.2773 102.742 48.3173V43.4813H105.286V48.6413C105.286 49.6333 105.09 50.5053 104.698 51.2573C104.306 52.0013 103.738 52.5813 102.994 52.9973C102.25 53.4133 101.342 53.6213 100.27 53.6213C99.2063 53.6213 98.3023 53.4133 97.5583 52.9973C96.8143 52.5813 96.2463 52.0013 95.8543 51.2573C95.4623 50.5053 95.2663 49.6333 95.2663 48.6413V43.4813H97.7983V48.3173Z" fill="white"/>
<path d="M110.565 53.3333H107.985V36.8213H110.565V53.3333Z" fill="white"/>
<path d="M112.523 43.4813H114.371V39.4373H116.915V43.4813H119.351V45.6413H116.915V49.8533C116.915 50.3813 117.003 50.7773 117.179 51.0413C117.363 51.3053 117.623 51.4373 117.959 51.4373C118.239 51.4373 118.459 51.3853 118.619 51.2813C118.787 51.1773 118.887 51.1053 118.919 51.0653L119.867 52.9253C119.819 52.9733 119.679 53.0533 119.447 53.1653C119.215 53.2773 118.915 53.3813 118.547 53.4773C118.179 53.5733 117.759 53.6213 117.287 53.6213C116.455 53.6213 115.759 53.3733 115.199 52.8773C114.647 52.3813 114.371 51.6053 114.371 50.5493V45.6413H112.523V43.4813Z" fill="white"/>
<path d="M121.735 53.3333V43.4813H124.291V53.3333H121.735ZM123.043 40.5293C122.611 40.5293 122.239 40.3733 121.927 40.0613C121.623 39.7493 121.471 39.3773 121.471 38.9453C121.471 38.5133 121.623 38.1413 121.927 37.8293C122.239 37.5093 122.611 37.3493 123.043 37.3493C123.331 37.3493 123.595 37.4253 123.835 37.5773C124.083 37.7213 124.279 37.9133 124.423 38.1533C124.575 38.3853 124.651 38.6493 124.651 38.9453C124.651 39.3773 124.495 39.7493 124.183 40.0613C123.871 40.3733 123.491 40.5293 123.043 40.5293Z" fill="white"/>
<path d="M142.441 37.4933V53.3333H139.921V42.5453L140.041 40.5173L139.561 42.7973L136.093 52.3253H133.609L130.153 42.7973L129.673 40.5173L129.793 42.5453V53.3333H127.273V37.4933H130.717L134.677 49.3493L134.857 50.2973L135.025 49.3493L139.009 37.4933H142.441Z" fill="white"/>
<path d="M153.437 53.3333V51.5093C153.373 51.7013 153.189 51.9653 152.885 52.3013C152.589 52.6373 152.181 52.9413 151.661 53.2133C151.149 53.4853 150.541 53.6213 149.837 53.6213C148.917 53.6213 148.089 53.4013 147.353 52.9613C146.617 52.5213 146.037 51.9093 145.613 51.1253C145.189 50.3413 144.977 49.4373 144.977 48.4133C144.977 47.3893 145.189 46.4853 145.613 45.7013C146.037 44.9173 146.617 44.3053 147.353 43.8653C148.089 43.4173 148.917 43.1933 149.837 43.1933C150.525 43.1933 151.121 43.3133 151.625 43.5533C152.129 43.7933 152.533 44.0693 152.837 44.3813C153.149 44.6933 153.341 44.9653 153.413 45.1973V43.4813H155.957V53.3333H153.437ZM147.509 48.4133C147.509 49.0453 147.649 49.5973 147.929 50.0693C148.209 50.5413 148.573 50.9053 149.021 51.1613C149.477 51.4173 149.965 51.5453 150.485 51.5453C151.045 51.5453 151.541 51.4133 151.973 51.1493C152.413 50.8853 152.757 50.5213 153.005 50.0573C153.261 49.5853 153.389 49.0373 153.389 48.4133C153.389 47.7893 153.261 47.2453 153.005 46.7813C152.757 46.3093 152.413 45.9413 151.973 45.6773C151.541 45.4053 151.045 45.2693 150.485 45.2693C149.965 45.2693 149.477 45.4013 149.021 45.6653C148.573 45.9213 148.209 46.2853 147.929 46.7573C147.649 47.2293 147.509 47.7813 147.509 48.4133Z" fill="white"/>
<path d="M161.033 53.3333H158.477V43.4813H161.033V45.1253H160.973C161.029 44.9253 161.181 44.6773 161.429 44.3813C161.685 44.0773 162.037 43.8053 162.485 43.5653C162.933 43.3173 163.473 43.1933 164.105 43.1933C164.561 43.1933 164.969 43.2573 165.329 43.3853C165.689 43.5133 165.945 43.6413 166.097 43.7693L165.065 45.8813C164.961 45.7533 164.765 45.6293 164.477 45.5093C164.197 45.3813 163.849 45.3173 163.433 45.3173C162.913 45.3173 162.473 45.4693 162.113 45.7733C161.761 46.0773 161.493 46.4413 161.309 46.8653C161.125 47.2893 161.033 47.6853 161.033 48.0533V53.3333Z" fill="white"/>
<path d="M171.965 51.5453C172.533 51.5453 172.993 51.4533 173.345 51.2693C173.705 51.0773 173.937 50.9373 174.041 50.8493L175.253 52.6493C175.157 52.7293 174.957 52.8493 174.653 53.0093C174.349 53.1613 173.961 53.3013 173.489 53.4293C173.025 53.5573 172.497 53.6213 171.905 53.6213C170.929 53.6213 170.041 53.4173 169.241 53.0093C168.449 52.5933 167.813 51.9973 167.333 51.2213C166.861 50.4373 166.625 49.4973 166.625 48.4013C166.625 47.2973 166.861 46.3573 167.333 45.5813C167.813 44.8053 168.449 44.2133 169.241 43.8053C170.041 43.3973 170.929 43.1933 171.905 43.1933C172.489 43.1933 173.009 43.2613 173.465 43.3973C173.929 43.5253 174.313 43.6733 174.617 43.8413C174.921 44.0093 175.125 44.1413 175.229 44.2373L173.993 46.0373C173.937 45.9813 173.821 45.8933 173.645 45.7733C173.477 45.6453 173.253 45.5293 172.973 45.4253C172.693 45.3213 172.357 45.2693 171.965 45.2693C171.485 45.2693 171.025 45.3973 170.585 45.6533C170.145 45.9093 169.785 46.2733 169.505 46.7453C169.225 47.2093 169.085 47.7613 169.085 48.4013C169.085 49.0413 169.225 49.5973 169.505 50.0693C169.785 50.5413 170.145 50.9053 170.585 51.1613C171.025 51.4173 171.485 51.5453 171.965 51.5453Z" fill="white"/>
<path d="M184.96 53.3333V51.5093C184.896 51.7013 184.712 51.9653 184.408 52.3013C184.112 52.6373 183.704 52.9413 183.184 53.2133C182.672 53.4853 182.064 53.6213 181.36 53.6213C180.44 53.6213 179.612 53.4013 178.876 52.9613C178.14 52.5213 177.56 51.9093 177.136 51.1253C176.712 50.3413 176.5 49.4373 176.5 48.4133C176.5 47.3893 176.712 46.4853 177.136 45.7013C177.56 44.9173 178.14 44.3053 178.876 43.8653C179.612 43.4173 180.44 43.1933 181.36 43.1933C182.048 43.1933 182.644 43.3133 183.148 43.5533C183.652 43.7933 184.056 44.0693 184.36 44.3813C184.672 44.6933 184.864 44.9653 184.936 45.1973V43.4813H187.48V53.3333H184.96ZM179.032 48.4133C179.032 49.0453 179.172 49.5973 179.452 50.0693C179.732 50.5413 180.096 50.9053 180.544 51.1613C181 51.4173 181.488 51.5453 182.008 51.5453C182.568 51.5453 183.064 51.4133 183.496 51.1493C183.936 50.8853 184.28 50.5213 184.528 50.0573C184.784 49.5853 184.912 49.0373 184.912 48.4133C184.912 47.7893 184.784 47.2453 184.528 46.7813C184.28 46.3093 183.936 45.9413 183.496 45.6773C183.064 45.4053 182.568 45.2693 182.008 45.2693C181.488 45.2693 181 45.4013 180.544 45.6653C180.096 45.9213 179.732 46.2853 179.452 46.7573C179.172 47.2293 179.032 47.7813 179.032 48.4133Z" fill="white"/>
<path d="M194.033 43.1933C194.585 43.1933 195.097 43.2453 195.569 43.3493C196.041 43.4533 196.445 43.5773 196.781 43.7213C197.117 43.8653 197.349 43.9853 197.477 44.0813L196.541 45.6653C196.381 45.5293 196.093 45.3733 195.677 45.1973C195.269 45.0213 194.809 44.9333 194.297 44.9333C193.785 44.9333 193.353 45.0253 193.001 45.2093C192.649 45.3933 192.473 45.6693 192.473 46.0373C192.473 46.3973 192.657 46.6853 193.025 46.9013C193.401 47.1173 193.909 47.2973 194.549 47.4413C195.077 47.5613 195.581 47.7293 196.061 47.9453C196.541 48.1533 196.933 48.4533 197.237 48.8453C197.549 49.2293 197.705 49.7453 197.705 50.3933C197.705 51.0093 197.573 51.5253 197.309 51.9413C197.053 52.3493 196.709 52.6773 196.277 52.9253C195.845 53.1733 195.365 53.3493 194.837 53.4533C194.317 53.5653 193.793 53.6213 193.265 53.6213C192.617 53.6213 192.037 53.5573 191.525 53.4293C191.021 53.3013 190.601 53.1533 190.265 52.9853C189.929 52.8093 189.689 52.6613 189.545 52.5413L190.481 50.7653C190.689 50.9653 191.029 51.1773 191.501 51.4013C191.973 51.6173 192.501 51.7253 193.085 51.7253C193.709 51.7253 194.209 51.6053 194.585 51.3653C194.961 51.1253 195.149 50.8053 195.149 50.4053C195.149 50.1093 195.057 49.8693 194.873 49.6853C194.697 49.5013 194.453 49.3533 194.141 49.2413C193.829 49.1293 193.481 49.0293 193.097 48.9413C192.737 48.8533 192.373 48.7413 192.005 48.6053C191.645 48.4613 191.313 48.2773 191.009 48.0533C190.705 47.8213 190.461 47.5333 190.277 47.1893C190.093 46.8453 190.001 46.4413 190.001 45.9773C190.001 45.3853 190.189 44.8813 190.565 44.4653C190.941 44.0493 191.437 43.7333 192.053 43.5173C192.669 43.3013 193.329 43.1933 194.033 43.1933Z" fill="white"/>
</svg>
