<svg width="20" height="25" viewBox="0 0 20 25" fill="none" xmlns="http://www.w3.org/2000/svg">
<path fill-rule="evenodd" clip-rule="evenodd" d="M10 0.416626C6.54822 0.416626 3.75 3.12157 3.75 6.45829C3.75 9.79501 6.54822 12.5 10 12.5C13.4518 12.5 16.25 9.79501 16.25 6.45829C16.25 3.12157 13.4518 0.416626 10 0.416626ZM6.25 6.45829C6.25 4.45626 7.92893 2.83329 10 2.83329C12.0711 2.83329 13.75 4.45626 13.75 6.45829C13.75 8.46033 12.0711 10.0833 10 10.0833C7.92893 10.0833 6.25 8.46033 6.25 6.45829Z" fill="black"/>
<path d="M2.5 23.375C2.5 19.3709 5.85786 16.125 10 16.125C14.1421 16.125 17.5 19.3709 17.5 23.375C17.5 24.0423 18.0596 24.5833 18.75 24.5833C19.4404 24.5833 20 24.0423 20 23.375C20 18.0362 15.5228 13.7083 10 13.7083C4.47715 13.7083 0 18.0362 0 23.375C0 24.0423 0.559644 24.5833 1.25 24.5833C1.94036 24.5833 2.5 24.0423 2.5 23.375Z" fill="black"/>
</svg>
