<svg width="20" height="26" viewBox="0 0 20 26" fill="none" xmlns="http://www.w3.org/2000/svg">
<path fill-rule="evenodd" clip-rule="evenodd" d="M10 0.916687C6.54822 0.916687 3.75 3.62163 3.75 6.95835C3.75 10.2951 6.54822 13 10 13C13.4518 13 16.25 10.2951 16.25 6.95835C16.25 3.62163 13.4518 0.916687 10 0.916687ZM6.25 6.95835C6.25 4.95632 7.92893 3.33335 10 3.33335C12.0711 3.33335 13.75 4.95632 13.75 6.95835C13.75 8.96039 12.0711 10.5834 10 10.5834C7.92893 10.5834 6.25 8.96039 6.25 6.95835Z" fill="white"/>
<path d="M2.5 23.875C2.5 19.871 5.85786 16.625 10 16.625C14.1421 16.625 17.5 19.871 17.5 23.875C17.5 24.5424 18.0596 25.0834 18.75 25.0834C19.4404 25.0834 20 24.5424 20 23.875C20 18.5363 15.5228 14.2084 10 14.2084C4.47715 14.2084 0 18.5363 0 23.875C0 24.5424 0.559644 25.0834 1.25 25.0834C1.94036 25.0834 2.5 24.5424 2.5 23.875Z" fill="white"/>
</svg>
