<svg width="51" height="51" viewBox="0 0 51 51" fill="none" xmlns="http://www.w3.org/2000/svg">
<g clip-path="url(#clip0_1603_10481)">
<rect x="0.899902" y="0.5" width="50" height="50" rx="18" fill="black"/>
<path d="M36.781 29.6252C36.4152 29.3372 33.1851 25.7802 31.356 24.1224C31.3482 24.1146 31.3482 24.1146 31.3482 24.1068V16.448C31.3482 14.5489 29.7993 13 27.9002 13H16.6066C14.8398 13 13.3999 14.4477 13.3999 16.2067V34.1706C13.3999 36.0697 14.9488 37.6186 16.8479 37.6186H20.1325H20.9653C21.1054 37.6186 21.2221 37.4941 21.2066 37.354L21.0275 35.8285C21.012 35.7039 20.9108 35.6183 20.7863 35.6183H20.4827H20.2959C20.1636 35.6183 20.0546 35.5093 20.0546 35.377V14.9692C20.0546 14.8369 20.1636 14.7279 20.2959 14.7279H27.9236C28.6941 14.7279 29.3246 15.3583 29.3246 16.1289V32.8007V34.443C29.3246 34.9723 28.9587 35.4237 28.4684 35.5638C28.4606 35.5638 28.4606 35.5638 28.4528 35.5638C27.62 35.1124 26.6393 33.1821 26.4914 32.8786C26.4759 32.8552 26.4681 32.8241 26.4681 32.8007C26.4136 32.3104 25.861 27.5626 23.3314 27.5626C23.2614 27.5626 23.1913 27.5626 23.1213 27.5704C23.1213 27.5704 21.0976 27.7416 22.771 33.509C22.771 33.5246 22.7788 33.5324 22.7788 33.5479L23.5182 39.938C23.5182 39.9458 23.5182 39.9536 23.526 39.9692C23.5883 40.2105 24.4289 43.4717 26.6004 45.7833C26.6393 45.83 26.6627 45.8845 26.6627 45.9468V46.4994C26.6627 46.5149 26.6549 46.5227 26.6393 46.5227H26.4447C25.97 46.5227 25.5808 46.9119 25.5808 47.3867V49.6361C25.5808 50.1108 25.97 50.5 26.4447 50.5H35.6057C36.0805 50.5 36.4696 50.1108 36.4696 49.6361V47.4022C36.4696 46.9275 36.0805 46.5383 35.6057 46.5383C35.5901 46.5383 35.5823 46.5305 35.5823 46.5149C35.8859 43.6974 36.9756 34.0616 37.5593 33.3067C37.5749 33.2833 37.5904 33.26 37.5982 33.2288C37.6994 32.8786 38.2053 30.7382 36.781 29.6252ZM17.0036 35.3926C17.0036 35.5171 16.9024 35.6105 16.7856 35.6105C16.0229 35.6105 15.4002 34.9879 15.4002 34.2251V16.1133C15.4002 15.3506 16.0229 14.7279 16.7856 14.7279C16.9102 14.7279 17.0036 14.8291 17.0036 14.9458V35.3926Z" fill="white"/>
</g>
<defs>
<clipPath id="clip0_1603_10481">
<rect x="0.899902" y="0.5" width="50" height="50" rx="18" fill="white"/>
</clipPath>
</defs>
</svg>
