<svg width="51" height="50" viewBox="0 0 51 50" fill="none" xmlns="http://www.w3.org/2000/svg">
<rect x="0.5" width="50" height="50" rx="18" fill="black"/>
<path d="M23.9953 34.6098C23.4609 34.1035 22.8375 33.7145 22.1566 33.4719L20.7293 27.9137L37.7285 23.1582L39.5496 30.2551L23.9953 34.6098ZM18.5836 19.5582L29.9168 16.3883L31.7391 23.4875L20.407 26.6574L18.5836 19.5582ZM19.0922 33.3652C18.7758 33.4543 18.4816 33.5809 18.1957 33.7203L13.1988 14.2496H11.3191C11.1305 14.6609 10.7355 14.9504 10.2691 14.9504H7.92305C7.275 14.9504 6.75 14.4008 6.75 13.7246C6.75 13.0484 7.275 12.5 7.92305 12.5H10.2691C10.6629 12.5 10.9934 12.7156 11.2066 13.0238H14.816V13.0836L14.8699 13.0672L20.0379 33.2035C19.7227 33.2328 19.4074 33.2785 19.0922 33.3652ZM19.3957 34.5488C21.5859 33.9359 23.8371 35.293 24.4242 37.5816C25.0113 39.868 23.7117 42.2187 21.5203 42.8316C19.3301 43.4422 17.0789 42.0852 16.4918 39.7988C15.9047 37.5125 17.2055 35.1617 19.3957 34.5488ZM18.7781 39.2398C19.0289 40.2195 19.9945 40.8008 20.9332 40.5371C21.8719 40.2734 22.4285 39.2668 22.1777 38.2871C21.927 37.3074 20.9613 36.7262 20.0227 36.9875C19.0828 37.2512 18.5262 38.259 18.7781 39.2398ZM39.4031 34.4199L25.7109 38.2496C25.6863 37.9227 25.6406 37.5922 25.5563 37.2629C25.473 36.9336 25.3523 36.6242 25.2176 36.3266L38.8383 32.518L39.4031 34.4199Z" fill="white"/>
</svg>
